HIERARCHY
ROOT root
{
	OFFSET	0	13.1	24.9
	CHANNELS 6  Xposition Yposition Zposition Xrotation Yrotation Zrotation
	JOINT spine_1
	{
		OFFSET	0	9.99999	0
		CHANNELS 3  Xrotation Yrotation Zrotation
		JOINT spine_2
		{
			OFFSET	0	112	-10
			CHANNELS 3  Xrotation Yrotation Zrotation
			JOINT spine_3
			{
				OFFSET	0	206.5	19.3
				CHANNELS 3  Xrotation Yrotation Zrotation
				JOINT spine_4
				{
					OFFSET	0	110.4	14.6
					CHANNELS 3  Xrotation Yrotation Zrotation
					JOINT neck_1
					{
						OFFSET	0	71.8	-50.3
						CHANNELS 3  Xrotation Yrotation Zrotation
						JOINT neck_2
						{
							OFFSET	0	86.2	-25.8
							CHANNELS 3  Xrotation Yrotation Zrotation
							JOINT head_ee
							{
								OFFSET	0	179.8	-8.7
								CHANNELS 3  Xrotation Yrotation Zrotation
								End Site
								{
									OFFSET	1	0	0
								}
							}
						}
					}
					JOINT left_clavicle
					{
						OFFSET	-43.2	22.4	-70.8
						CHANNELS 3  Xrotation Yrotation Zrotation
						JOINT left_shoulder
						{
							OFFSET	-93.9	-5.79999	48.7
							CHANNELS 3  Xrotation Yrotation Zrotation
							JOINT left_elbow
							{
								OFFSET	-291.4	-30.8	15.2
								CHANNELS 3  Xrotation Yrotation Zrotation
								JOINT left_lowarm_twist
								{
									OFFSET	-110.7	-3.89999	13.6
									CHANNELS 3  Xrotation Yrotation Zrotation
									JOINT left_hand
									{
										OFFSET	-110.7	-3.89999	13.6
										CHANNELS 3  Xrotation Yrotation Zrotation
										JOINT left_ee
										{
											OFFSET	-80.8	-5.10001	12.1
											CHANNELS 3  Xrotation Yrotation Zrotation
											End Site
											{
												OFFSET	1	0	0
											}
										}
									}
								}
							}
						}
					}
					JOINT right_clavicle
					{
						OFFSET	43.2	22.4	-70.8
						CHANNELS 3  Xrotation Yrotation Zrotation
						JOINT right_shoulder
						{
							OFFSET	93.9	-5.79999	48.7
							CHANNELS 3  Xrotation Yrotation Zrotation
							JOINT right_elbow
							{
								OFFSET	291.4	-30.8	15.2
								CHANNELS 3  Xrotation Yrotation Zrotation
								JOINT right_lowarm_twist
								{
									OFFSET	110.7	-3.89999	13.6
									CHANNELS 3  Xrotation Yrotation Zrotation
									JOINT right_hand
									{
										OFFSET	110.7	-3.89999	13.6
										CHANNELS 3  Xrotation Yrotation Zrotation
										JOINT right_ee
										{
											OFFSET	80.8	-5.10001	12.1
											CHANNELS 3  Xrotation Yrotation Zrotation
											End Site
											{
												OFFSET	1	0	0
											}
										}
									}
								}
							}
						}
					}
				}
			}
		}
	}
	JOINT left_hip
	{
		OFFSET	-82.8	-127.5	0.300001
		CHANNELS 3  Xrotation Yrotation Zrotation
		JOINT left_knee
		{
			OFFSET	-28.2	-396.7	2.2
			CHANNELS 3  Xrotation Yrotation Zrotation
			JOINT left_ankle
			{
				OFFSET	-11.7	-411.3	35.4
				CHANNELS 3  Xrotation Yrotation Zrotation
				JOINT left_toes
				{
					OFFSET	0	-60	-88.6
					CHANNELS 3  Xrotation Yrotation Zrotation
					JOINT left_foot_ee
					{
						OFFSET	-22.5	-16.5	-42.2
						CHANNELS 3  Xrotation Yrotation Zrotation
						End Site
						{
							OFFSET	1	0	0
						}
					}
				}
			}
		}
	}
	JOINT right_hip
	{
		OFFSET	82.8	-127.5	0.300001
		CHANNELS 3  Xrotation Yrotation Zrotation
		JOINT right_knee
		{
			OFFSET	28.2	-396.7	2.2
			CHANNELS 3  Xrotation Yrotation Zrotation
			JOINT right_ankle
			{
				OFFSET	11.7	-411.3	35.4
				CHANNELS 3  Xrotation Yrotation Zrotation
				JOINT right_toes
				{
					OFFSET	0	-60	-88.6
					CHANNELS 3  Xrotation Yrotation Zrotation
					JOINT right_foot_ee
					{
						OFFSET	22.5	-16.5	-42.2
						CHANNELS 3  Xrotation Yrotation Zrotation
						End Site
						{
							OFFSET	1	0	0
						}
					}
				}
			}
		}
	}
}
MOTION
Frames: 6
Frame Time: 0.02
2958.81994003 693.877 -1970.37808082 -23.1526913041 11.1565321314 7.28042174247 9.60511 -0.0893837 -1.22912 9.60595 -0.0109962 -1.23232 9.60442 0.0433808 -1.23161 9.60233 -0.151658 -1.223 -17.3358 5.46959 5.8484 -17.2949 7.27243 7.48902 -0.0 0.0 -0.0 7.81353 16.135 14.3854 -53.7625 -63.5161 26.1013 0.709452 -19.3636 0.121039 -48.4834 -3.89512 4.60124 1.97718 -0.901691 12.9681 -0.0 0.0 -0.0 7.35132 13.3585 -13.982 82.1627 -70.3315 22.4343 0.362775 10.188 -0.0323385 76.2836 3.41711 8.38655 -4.23403 -11.272 22.9283 0.0 0.0 0.0 37.3794 3.66537 2.03895 -21.9074 0.268101 3.33073 42.1795 20.2645 -5.23164 -28.4553 0.0 0.0 -0.0 0.0 -0.0 43.0246 12.6944 -3.34559 -48.0307 1.05502 -7.08353 -13.6592 -10.324 -2.04579 34.9414 -0.0 -0.0 0.0 0.0 0.0 
2944.92672591 697.298 -1984.00974883 -22.2002461139 10.8351241752 7.29166175426 9.26804 0.0461343 -1.03583 9.26863 0.11195 -1.03079 9.26547 0.163395 -1.0239 9.26401 -0.000352969 -1.03686 -16.7122 7.60312 3.14112 -16.8568 12.8251 5.70281 -0.0 0.0 -0.0 7.04079 13.8906 13.2553 -39.5944 -60.4514 37.1085 0.685058 -18.7451 0.113075 -56.4927 -4.85007 4.97867 -0.0872371 8.13714 2.8186 -0.0 0.0 -0.0 8.95306 12.4164 -17.4895 79.7014 -66.991 23.0783 0.313796 8.83584 -0.0242442 76.1262 3.39959 8.3765 -4.06466 -9.93236 22.5633 0.0 0.0 0.0 34.2414 11.1218 0.324226 -19.5871 0.300323 2.97618 41.9074 16.1792 -5.11999 -30.2047 0.0 0.0 -0.0 0.0 -0.0 46.1868 5.97481 -4.15648 -46.795 0.954632 -6.92197 -21.6797 -13.0156 -3.26991 32.3774 -0.0 -0.0 0.0 0.0 0.0 
2921.06884192 700.81 -1995.63422795 -22.1633501752 14.1954619986 8.62450562361 9.30769 -0.135405 -0.735848 9.30799 -0.0883082 -0.742973 9.30851 -0.0515992 -0.746421 9.30777 -0.168832 -0.728906 -16.8921 7.81354 2.6599 -17.0686 13.5133 5.35699 -0.0 0.0 -0.0 6.6501 10.4426 12.7409 -37.4814 -57.4999 37.1233 0.702417 -19.1857 0.118716 -55.2607 -4.69993 4.92937 -1.49514 13.2499 -3.93978 -0.0 0.0 -0.0 10.4579 12.0282 -20.807 77.7784 -66.3167 25.0852 0.29116 8.20748 -0.0208897 74.5958 3.23068 8.27627 -3.72961 -8.42998 21.1061 0.0 0.0 0.0 31.8701 12.3375 -0.383352 -19.1027 0.305236 2.90201 41.2171 15.632 -5.05055 -32.2643 0.0 0.0 -0.0 0.0 -0.0 48.6518 6.53558 -5.93416 -47.8779 1.04242 -7.06367 -23.9324 -14.4834 -3.61859 26.0232 -0.0 -0.0 0.0 0.0 0.0 
2910.36724038 700.81 -1986.94996951 -22.3576675121 15.9576081639 9.37146836364 9.30769 -0.135405 -0.735848 9.30799 -0.0883082 -0.742973 9.30851 -0.0515992 -0.746421 9.30777 -0.168832 -0.728906 -16.8921 7.81354 2.6599 -17.0686 13.5133 5.35699 -0.0 0.0 -0.0 6.6501 10.4426 12.7409 -37.4814 -57.4999 37.1233 0.702417 -19.1857 0.118716 -55.2607 -4.69993 4.92937 -1.49514 13.2499 -3.93978 -0.0 0.0 -0.0 10.4579 12.0282 -20.807 77.7784 -66.3167 25.0852 0.29116 8.20748 -0.0208897 74.5958 3.23068 8.27627 -3.72961 -8.42998 21.1061 0.0 0.0 0.0 31.8701 12.3375 -0.383352 -19.1027 0.305236 2.90201 41.2171 15.632 -5.05055 -32.2643 0.0 0.0 -0.0 0.0 -0.0 48.6518 6.53558 -5.93416 -47.8779 1.04242 -7.06367 -23.9324 -14.4834 -3.61859 26.0232 -0.0 -0.0 0.0 0.0 0.0 
2847.33583485 695.854 -1999.10109783 -22.6177080357 20.9395184203 11.4924627121 8.78709 -0.0834489 -0.0732504 8.78709 -0.0786186 -0.078412 8.78719 -0.0739089 -0.0828663 8.78719 -0.0860685 -0.0701538 -17.2962 8.25903 -2.04685 -17.621 16.9981 1.20873 -0.0 0.0 -0.0 6.41554 8.95841 12.3671 -25.4438 -49.1074 39.4691 1.13473 -29.34 0.297065 -67.5251 -6.23065 5.27319 -7.05957 29.5347 -27.4868 -0.0 0.0 -0.0 10.9523 12.058 -21.9067 77.9301 -66.5628 27.6683 0.229102 6.47497 -0.0129592 73.7482 3.1383 8.21883 -3.31251 -5.24326 19.9612 0.0 0.0 0.0 23.4975 20.7505 1.24989 -10.0861 0.282081 1.52021 40.9553 7.0301 -4.94304 -32.6701 0.0 0.0 -0.0 0.0 -0.0 60.7586 0.138009 -8.88756 -43.8046 0.726382 -6.5225 -17.4103 -28.8074 -2.78355 9.89378 -0.0 -0.0 0.0 0.0 0.0 
2841.51399952 695.854 -1993.17691336 -22.7720999197 21.8810317329 11.9153875422 8.78709 -0.0834489 -0.0732504 8.78709 -0.0786186 -0.078412 8.78719 -0.0739089 -0.0828663 8.78719 -0.0860685 -0.0701538 -17.2962 8.25903 -2.04685 -17.621 16.9981 1.20873 -0.0 0.0 -0.0 6.41554 8.95841 12.3671 -25.4438 -49.1074 39.4691 1.13473 -29.34 0.297065 -67.5251 -6.23065 5.27319 -7.05957 29.5347 -27.4868 -0.0 0.0 -0.0 10.9523 12.058 -21.9067 77.9301 -66.5628 27.6683 0.229102 6.47497 -0.0129592 73.7482 3.1383 8.21883 -3.31251 -5.24326 19.9612 0.0 0.0 0.0 23.4975 20.7505 1.24989 -10.0861 0.282081 1.52021 40.9553 7.0301 -4.94304 -32.6701 0.0 0.0 -0.0 0.0 -0.0 60.7586 0.138009 -8.88756 -43.8046 0.726382 -6.5225 -17.4103 -28.8074 -2.78355 9.89378 -0.0 -0.0 0.0 0.0 0.0 
